# xmcd
#
# Track frame offsets: 
#        182
#        10147
#        24912
#        40552
#        56695
#        72410
#        87315
#        100592
#        116825
#        132675
#        150760
#        169827
#        179950
#        193587
#        208462
#
# Disc length: 3041 seconds
#
# Revision: 5
# Processed by: cddbd v1.5.2PL0 Copyright (c) Steve Scherf et al.
# Submitted via: ExactAudioCopyFreeDBPlugin 1.0
#
DISCID=d00bdf0f
DTITLE=Ray Charles - Modern Sounds in Country and Western Music
DYEAR=1962
DGENRE=Country
TTITLE0=Bye Bye, Love
TTITLE1=You Don't Know Me
TTITLE2=Half As Much
TTITLE3=I Love You So Much It Hurts
TTITLE4=Just A Little Lovin'
TTITLE5=Born To Lose
TTITLE6=Worried Mind
TTITLE7=It Makes No Difference Now
TTITLE8=You Win Again
TTITLE9=Careless Love
TTITLE10=I Can't Stop Loving You
TTITLE11=Hey, Good Lookin'
TTITLE12=You Are My Sunshine
TTITLE13=Here We Go Again
TTITLE14=That Lucky Old Sun
EXTD=
EXTT0=
EXTT1=
EXTT2=
EXTT3=
EXTT4=
EXTT5=
EXTT6=
EXTT7=
EXTT8=
EXTT9=
EXTT10=
EXTT11=
EXTT12=
EXTT13=
EXTT14=
PLAYORDER=
